<svg width="214" height="43" viewBox="0 0 214 43" fill="none" xmlns="http://www.w3.org/2000/svg">
<path d="M0.299805 12.8999C0.399805 12.4999 0.299811 12.0999 0.399811 11.6999C0.799811 7.99991 2.69981 5.19989 5.89981 3.39989C7.49981 2.49989 9.19982 2.0999 10.9998 1.9999C12.8998 1.7999 14.8998 1.89989 16.7998 2.39989C17.1331 2.46656 17.4665 2.59988 17.7998 2.79988C17.9998 2.79988 17.9998 2.8999 17.9998 3.0999C17.6665 4.23324 17.3665 5.36656 17.0998 6.4999C16.9998 6.6999 16.8998 6.6999 16.7998 6.5999C15.3331 6.06657 13.7998 5.83322 12.1998 5.89989C10.3998 5.99989 8.79981 6.49988 7.39981 7.79988C6.49981 8.69988 5.89983 9.7999 5.69983 10.9999C5.29983 12.7999 5.39982 14.4999 5.99982 16.0999C6.89982 18.1999 8.49983 19.4999 10.6998 19.8999C12.6998 20.2999 14.7998 20.0999 16.6998 19.4999C16.8998 19.3999 16.9998 19.3999 17.0998 19.5999C17.2998 20.7332 17.4998 21.8332 17.6998 22.8999C17.7998 23.0999 17.6998 23.1999 17.3998 23.2999C16.5331 23.6332 15.6665 23.8666 14.7998 23.9999C13.7998 24.1332 12.7998 24.1999 11.7998 24.1999C9.7998 24.0999 7.89982 23.8999 6.09982 22.9999C3.16649 21.5999 1.33316 19.2999 0.599823 16.0999C0.399823 15.4332 0.299805 14.7666 0.299805 14.0999C0.299805 13.9999 0.299805 13.8999 0.299805 13.7999C0.299805 13.4666 0.299805 13.1666 0.299805 12.8999Z" fill="#FEFEFE"/>
<path d="M146.999 6.39993C146.899 6.69993 146.799 6.89995 146.799 7.19995C145.799 10.8 144.699 14.2999 143.499 17.7999C142.966 19.5999 142.399 21.3666 141.799 23.0999C141.699 23.3999 141.599 23.4999 141.399 23.4999C140.266 23.4333 139.166 23.4333 138.099 23.4999C137.899 23.4999 137.799 23.4 137.699 23.2C136.499 18.7 135.099 14.3 134.099 9.69995C133.899 8.69995 133.699 7.69995 133.499 6.69995C133.433 6.63328 133.366 6.53327 133.299 6.39993C133.299 6.89993 133.299 7.29995 133.299 7.69995C133.166 10.3666 133.033 12.9999 132.899 15.5999C132.833 17.7999 132.733 20 132.599 22.2C132.599 22.6666 132.566 23.1333 132.499 23.5999C132.499 23.7999 132.499 23.7999 132.299 23.7999C130.899 23.7999 129.499 23.7999 128.099 23.7999C127.899 23.7999 127.899 23.6999 127.899 23.5999C127.966 22.5333 128.033 21.4666 128.099 20.3999C128.233 18.9333 128.333 17.4999 128.399 16.0999C128.533 14.2999 128.666 12.5 128.799 10.7C128.866 9.29995 128.933 7.89994 128.999 6.49994C129.133 5.16661 129.233 3.83327 129.299 2.49994C129.299 2.29994 129.399 2.19995 129.599 2.19995C131.666 2.19995 133.733 2.19995 135.799 2.19995C135.999 2.19995 136.099 2.29993 136.099 2.39993C137.099 5.89993 138.199 9.29993 139.099 12.7999C139.499 14.0999 139.699 15.4999 139.999 16.7999C139.999 16.8666 139.999 16.9333 139.999 16.9999C139.999 16.9999 139.999 17.0999 140.099 17.0999C140.199 17.0999 140.199 16.9999 140.199 16.9999C140.266 16.7999 140.299 16.6333 140.299 16.4999C141.199 12.5999 142.399 8.89995 143.699 5.19995C144.033 4.26662 144.333 3.33327 144.599 2.39993C144.699 2.29993 144.699 2.19995 144.899 2.19995C146.966 2.19995 148.999 2.19995 150.999 2.19995C151.199 2.19995 151.299 2.29994 151.299 2.49994C151.366 3.89994 151.433 5.29995 151.499 6.69995C151.633 8.76662 151.766 10.8666 151.899 12.9999C151.966 14.1999 152.033 15.3999 152.099 16.5999C152.166 18.8666 152.266 21.0999 152.399 23.2999C152.499 23.8999 152.499 23.7999 151.999 23.7999C150.599 23.7999 149.233 23.7999 147.899 23.7999C147.699 23.7999 147.599 23.7999 147.599 23.4999C147.533 22.5666 147.499 21.5999 147.499 20.5999C147.366 18.2666 147.266 15.8999 147.199 13.4999C147.133 11.8333 147.099 10.1666 147.099 8.49994C147.099 7.83327 147.099 7.13327 147.099 6.39993C147.033 6.39993 146.999 6.39993 146.999 6.39993Z" fill="#EC1E24"/>
<path fill-rule="evenodd" clip-rule="evenodd" d="M184 21.6C183.7 21.9 183.4 22.1 183.2 22.4C182 23.5 180.5 23.8 178.9 23.7C175.5 23.4 173.2 20.7 172.8 17.7C172.5 15.8 172.6 14 173.4 12.3C174.4 10.1 175.9 8.59998 178.3 7.99998C179.5 7.66664 180.733 7.69998 182 8.09998C182.933 8.43331 183.667 8.99996 184.2 9.79996C184.3 9.79996 184.3 9.99998 184.5 9.99998C184.567 9.59998 184.6 9.19996 184.6 8.79996C184.6 8.09996 184.6 8.09998 185.3 8.09998C186.433 8.09998 187.567 8.09998 188.7 8.09998C188.9 8.09998 189 8.19997 188.9 8.39997C188.8 9.89997 188.8 11.4 188.8 12.8C188.8 15.8666 188.8 18.9 188.8 21.9C188.8 23.1 188.7 24.4 188.3 25.6C187.5 27.9 186 29.5 183.7 30.1C180.7 30.9 177.7 30.8 174.8 29.7C174 29.4 174 29.4 174.2 28.5C174.467 27.6333 174.733 26.7333 175 25.8C175 25.6 175.1 25.6 175.3 25.7C176.7 26.4333 178.233 26.8 179.9 26.8C181.1 26.8 182.3 26.4 183.1 25.4C183.8 24.6 183.9 23.7 184 22.7C184 22.3 184 22 184 21.6ZM183.9 15.7C183.8 15.2 183.9 14.7 183.8 14.1C183.7 12.9 183.1 12 181.9 11.6C180.7 11.3 179.5 11.6 178.7 12.6C178.1 13.4 177.8 14.3 177.7 15.4C177.6 16.7 177.8 18.1 178.8 19.1C179.6 20 180.6 20.3 181.7 20C182.8 19.7 183.6 19 183.8 17.8C183.9 17.1 183.9 16.4 183.9 15.7Z" fill="#EC1E24"/>
<path fill-rule="evenodd" clip-rule="evenodd" d="M108.6 30.4999C106.7 30.4999 104.8 30.2999 103 29.4999C102.8 29.2999 102.8 29.1999 102.8 28.9999C103.133 27.9999 103.433 26.9665 103.7 25.8999C103.7 25.6999 103.8 25.5999 104 25.6999C105.466 26.4999 107 26.8665 108.6 26.7999C109.2 26.7999 109.766 26.6999 110.3 26.4999C111.8 25.8999 112.5 24.7999 112.7 23.2999C112.7 22.8332 112.7 22.3665 112.7 21.8999C112.7 21.7999 112.7 21.6999 112.6 21.5999C112.5 21.5999 112.5 21.6999 112.4 21.7999C111.2 23.2999 109.5 23.7999 107.6 23.6999C104.4 23.4999 102 20.8999 101.5 17.8999C101.2 15.8999 101.3 13.9999 102.2 12.1999C103.2 9.99989 104.9 8.39988 107.3 7.99988C109 7.69988 110.6 7.79987 112 8.79987C112.4 9.06654 112.733 9.43321 113 9.89988C113 9.89988 113.1 9.99988 113.2 9.99988C113.3 9.99988 113.3 9.89987 113.3 9.79987C113.3 9.3332 113.333 8.86654 113.4 8.39988C113.4 8.19988 113.5 8.19989 113.6 8.19989C114.866 8.19989 116.133 8.19989 117.4 8.19989C117.6 8.19989 117.7 8.19988 117.6 8.39988C117.5 9.49988 117.5 10.5999 117.5 11.6999C117.5 15.0332 117.5 18.3666 117.5 21.6999C117.5 22.7999 117.4 23.9999 117.1 25.1999C116.3 27.9332 114.5 29.5999 111.7 30.1999C110.633 30.4666 109.6 30.5665 108.6 30.4999ZM112.6 15.6999C112.6 15.2999 112.6 14.7999 112.6 14.3999C112.5 13.2999 112.1 12.3999 111.1 11.7999C109.8 11.1999 108.1 11.3999 107.2 12.8999C106.1 14.5999 106.1 16.3999 106.9 18.2999C107.4 19.4999 108.5 20.0999 109.9 20.0999C111 20.0999 112.1 19.1999 112.4 18.0999C112.6 17.2999 112.6 16.4999 112.6 15.6999Z" fill="#FEFEFE"/>
<path d="M98.2994 18.8999C98.2994 20.4332 98.2994 21.9666 98.2994 23.4999C98.2994 23.6999 98.1994 23.7999 97.8994 23.7999C96.4994 23.7999 95.0994 23.7999 93.6994 23.7999C93.3994 23.7999 93.3994 23.6999 93.3994 23.4999C93.3994 20.6999 93.3994 17.9332 93.3994 15.1999C93.3994 14.6666 93.3327 14.1666 93.1994 13.6999C92.5994 11.4999 90.3994 11.3999 89.2994 12.1999C88.4327 12.7999 87.9994 13.5999 87.9994 14.5999C87.9994 17.5332 87.9994 20.4665 87.9994 23.3999C87.9994 23.7999 87.9994 23.7999 87.5994 23.7999C86.1994 23.7999 84.7994 23.7999 83.3994 23.7999C83.0994 23.7999 82.9994 23.6999 82.9994 23.4999C83.0661 19.4332 83.0661 15.3999 82.9994 11.3999C82.9994 10.4666 82.9661 9.53323 82.8994 8.5999C82.8994 8.1999 82.8994 8.1999 83.2994 8.1999C84.4994 8.1999 85.6994 8.16656 86.8994 8.0999C87.0994 8.0999 87.1994 8.19988 87.1994 8.39988C87.2661 8.99988 87.3327 9.5999 87.3994 10.1999C87.3994 10.1999 87.3994 10.2999 87.4994 10.3999C87.5994 10.3999 87.5994 10.2999 87.6994 10.1999C88.2994 9.3999 88.9994 8.69988 89.9994 8.29988C92.0994 7.49988 94.1994 7.49989 96.0994 8.99989C97.2994 9.89989 97.7994 11.1999 98.0994 12.5999C98.2994 13.5999 98.2994 14.5999 98.2994 15.5999C98.2994 16.7332 98.2994 17.8332 98.2994 18.8999Z" fill="#FEFEFE"/>
<path fill-rule="evenodd" clip-rule="evenodd" d="M169.499 17.3999C169.599 18.8999 169.499 20.3999 169.599 21.7999C169.599 22.3999 169.666 22.9666 169.799 23.4999C169.799 23.6999 169.799 23.7999 169.499 23.7999C168.233 23.7999 166.933 23.7999 165.599 23.7999C165.399 23.7999 165.299 23.7999 165.299 23.5999C165.233 23.2666 165.166 22.8999 165.099 22.4999C165.099 22.3999 165.099 22.2999 164.999 22.2999C164.899 22.1999 164.899 22.3999 164.799 22.3999C163.099 24.3999 159.599 24.5999 157.699 23.5999C155.899 22.5999 155.066 21.0666 155.199 18.9999C155.299 16.9999 156.299 15.5999 158.099 14.5999C159.399 13.8999 160.799 13.5999 162.199 13.4999C162.933 13.3666 163.666 13.3333 164.399 13.3999C164.599 13.3999 164.599 13.2999 164.599 13.0999C164.599 12.3999 164.299 11.8999 163.699 11.5999C163.299 11.3999 162.799 11.1999 162.299 11.1999C160.599 11.0999 158.899 11.3999 157.399 12.2999C157.299 12.2999 157.199 12.2999 157.099 12.0999C156.833 11.2333 156.566 10.3666 156.299 9.49993C156.299 9.29993 156.299 9.19994 156.499 9.09994C157.799 8.39994 159.299 7.99992 160.799 7.89992C162.099 7.79992 163.499 7.69993 164.799 7.99993C167.399 8.59993 168.999 10.2999 169.399 12.8999C169.599 14.0999 169.499 15.2999 169.499 16.3999C169.566 16.7333 169.566 17.0666 169.499 17.3999ZM164.799 17.5999C164.799 17.1999 164.799 16.9999 164.799 16.6999C164.799 16.4999 164.699 16.3999 164.499 16.3999C163.766 16.3999 163.066 16.4666 162.399 16.5999C161.799 16.7999 161.199 16.9999 160.799 17.2999C159.599 18.2999 159.899 20.0999 161.199 20.5999C162.699 21.0999 164.499 20.0999 164.699 18.6999C164.799 18.2999 164.799 17.8999 164.799 17.5999Z" fill="#EC1E24"/>
<path fill-rule="evenodd" clip-rule="evenodd" d="M46.3 16.8999C46.3 17.9999 46.3 18.8999 46.3 19.7999C46.3 20.9999 46.3 22.2999 46.5 23.4999C46.6 23.6999 46.5 23.7999 46.3 23.7999C45.0333 23.7999 43.7333 23.7999 42.4 23.7999C42.2 23.7999 42.1 23.7999 42.1 23.4999C42.0333 23.1666 41.9667 22.8333 41.9 22.4999C41.9 22.3999 41.9 22.2999 41.8 22.2999C41.7 22.1999 41.6 22.2999 41.6 22.3999C40.8 23.2666 39.8 23.7999 38.6 23.9999C37.1 24.2999 35.6 24.1999 34.2 23.3999C32.5 22.2999 31.8 20.5999 32 18.7999C32.2 16.2999 33.8 14.9999 36 14.1999C37.3 13.6999 38.6 13.4999 39.9 13.3999C40.3667 13.3999 40.8 13.3999 41.2 13.3999C41.4 13.3999 41.4 13.2999 41.4 13.0999C41.4 12.3999 41.1 11.7999 40.4 11.4999C39.6 11.1999 38.8 11.0999 37.9 11.1999C36.5667 11.2666 35.3333 11.5999 34.2 12.1999C34 12.2999 34 12.2999 33.9 12.0999C33.6333 11.2333 33.3667 10.3332 33.1 9.39992C33.1 9.19992 33.2 9.19993 33.3 9.09993C34.3 8.63326 35.3 8.29993 36.3 8.09993C37.6333 7.83326 38.9666 7.76658 40.3 7.89992C41.9 7.99992 43.4 8.39993 44.6 9.59993C45.6 10.5999 46.1 11.7999 46.2 13.1999C46.4 14.4999 46.3 15.7999 46.3 16.8999ZM41.6 17.4999C41.6 17.2333 41.6 16.9666 41.6 16.6999C41.6 16.4999 41.5 16.3999 41.3 16.3999C40.7 16.3999 40.1 16.4333 39.5 16.4999C38.8 16.6999 38.2 16.7999 37.6 17.1999C36.4 18.0999 36.5 19.9999 37.8 20.5999C39.2 21.1999 41.1 20.2999 41.5 18.7999C41.6 18.3999 41.6 17.8999 41.6 17.4999Z" fill="#FEFEFE"/>
<path d="M50.8994 17.7999C50.8994 15.8666 50.8994 13.9666 50.8994 12.1C50.8994 11.8 50.7994 11.7999 50.4994 11.7999C50.0994 11.7999 49.5994 11.7999 49.1994 11.7999C48.8994 11.7999 48.8994 11.6999 48.8994 11.4999C48.8994 10.4999 48.8994 9.46661 48.8994 8.39994C48.8994 8.19994 48.8994 8.09996 49.1994 8.19996C49.5994 8.19996 50.0994 8.09996 50.5994 8.19996C50.7994 8.19996 50.8994 8.09994 50.8994 7.89994C50.8994 6.79994 50.9994 5.69996 51.3994 4.69996C52.0994 2.49996 53.5994 1.29993 55.7994 0.799933C57.0994 0.599933 58.3994 0.699939 59.6994 0.899939C59.7994 0.999939 59.8994 0.999957 59.8994 1.19996C59.8327 1.93329 59.7994 2.69995 59.7994 3.49995C59.7327 3.83328 59.6994 4.16661 59.6994 4.49995C59.6994 4.69995 59.6994 4.69996 59.3994 4.69996C58.8661 4.49996 58.2994 4.46662 57.6994 4.59995C56.6994 4.69995 56.0994 5.39994 55.8994 6.39994C55.7994 6.89994 55.7994 7.39993 55.7994 7.79993C55.7994 8.09993 55.7994 8.19996 56.0994 8.19996C56.966 8.19996 57.8327 8.16662 58.6994 8.09995C58.8994 8.09995 58.9994 8.19995 58.9994 8.49995C58.9994 9.49995 58.9994 10.4999 58.9994 11.4999C58.9994 11.6999 58.8994 11.7999 58.6994 11.7999C57.8327 11.7999 56.9994 11.7999 56.1994 11.7999C55.8994 11.7999 55.7994 11.9 55.7994 12.2C55.7994 15.9333 55.7994 19.6666 55.7994 23.3999C55.7994 23.7999 55.7994 23.7999 55.3994 23.7999C53.9994 23.7999 52.5994 23.7999 51.1994 23.7999C50.8994 23.7999 50.8994 23.6999 50.8994 23.4999C50.8994 21.5666 50.8994 19.6666 50.8994 17.7999Z" fill="#FEFEFE"/>
<path d="M62.6996 15.3999C62.6996 14.3332 62.6996 13.2666 62.6996 12.1999C62.6996 11.7999 62.6996 11.7999 62.2996 11.7999C61.833 11.7999 61.3663 11.7999 60.8997 11.7999C60.6997 11.7999 60.5996 11.6999 60.5996 11.4999C60.5996 10.4999 60.5996 9.46658 60.5996 8.39992C60.5996 8.19992 60.6997 8.09993 60.8997 8.09993C61.3997 8.19993 61.8997 8.09993 62.3997 8.19993C62.6997 8.19993 62.6996 8.09991 62.6996 7.79991C62.6996 7.09991 62.6996 6.29992 62.6996 5.49992C62.6996 5.29992 62.7996 5.19993 62.9996 5.09993C64.3996 4.76659 65.7996 4.39992 67.1996 3.99992C67.4996 3.89992 67.4996 3.99993 67.4996 4.19993C67.4996 5.39993 67.4996 6.59991 67.4996 7.79991C67.4996 8.09991 67.5997 8.19993 67.8997 8.19993C68.7997 8.09993 69.7996 8.19993 70.6996 8.09993C70.9996 8.09993 71.0996 8.19992 71.0996 8.49992C71.0996 9.43326 71.0996 10.3999 71.0996 11.3999C71.0996 11.6999 70.9996 11.7999 70.6996 11.7999C69.7663 11.7999 68.833 11.7999 67.8997 11.7999C67.5997 11.7999 67.4996 11.7999 67.4996 12.0999C67.4996 13.8999 67.4996 15.7333 67.4996 17.5999C67.4996 18.0999 67.5996 18.5999 67.7996 19.0999C67.9996 19.6999 68.4996 20.0999 69.1996 20.1999C69.6996 20.1999 70.1996 20.1999 70.7996 20.0999C70.8996 19.9999 70.9996 20.0999 70.9996 20.1999C70.9996 21.3333 70.9996 22.4333 70.9996 23.4999C70.9996 23.6999 70.8996 23.7999 70.6996 23.7999C70.233 23.9332 69.7663 24.0333 69.2996 24.0999C68.2996 24.1999 67.3996 24.1999 66.4996 23.9999C64.433 23.5333 63.233 22.2666 62.8997 20.1999C62.7663 19.5333 62.6996 18.8333 62.6996 18.0999C62.6996 17.1666 62.6996 16.2666 62.6996 15.3999Z" fill="#FEFEFE"/>
<path d="M200.899 16.0999C200.899 11.9999 203.599 8.69992 207.699 7.99992C209.699 7.69992 211.699 7.69991 213.699 8.29991C213.899 8.39991 213.999 8.49993 213.899 8.69993C213.699 9.7666 213.499 10.7999 213.299 11.7999C213.199 11.9999 213.099 12.0999 212.899 11.9999C211.699 11.4999 210.399 11.3999 209.099 11.6999C207.299 12.0999 206.099 13.6999 205.999 15.4999C205.999 16.1999 205.999 16.7999 206.199 17.4999C206.699 18.9999 208.099 20.0999 209.699 20.2999C210.899 20.3666 212.033 20.2332 213.099 19.8999C213.299 19.7999 213.399 19.7999 213.399 20.0999C213.599 21.0999 213.799 22.0999 213.999 23.0999C213.999 23.3999 213.899 23.4999 213.699 23.4999C212.099 24.0999 210.399 24.1999 208.699 24.1999C207.399 24.0999 206.099 23.7999 204.999 23.1999C202.799 22.0666 201.499 20.2666 201.099 17.7999C201.033 17.5332 200.966 17.2666 200.899 16.9999C200.899 16.7333 200.899 16.4333 200.899 16.0999Z" fill="#EC1E24"/>
<path d="M20.8998 17.7C20.8998 16.0333 20.8998 14.3666 20.8998 12.7C20.8998 11.3 20.8665 9.89996 20.7998 8.49996C20.7998 8.19996 20.7998 8.09996 21.0998 8.09996C22.2998 8.16663 23.4998 8.16663 24.6998 8.09996C24.8998 8.09996 24.9998 8.19996 24.9998 8.49996C24.9998 9.29996 25.0332 10.1 25.0998 10.9C25.0998 11 25.0998 11.1 25.1998 11.1C25.3998 11.1 25.3998 11 25.3998 10.9C25.9998 9.39995 26.9998 8.39995 28.5998 7.89995C29.1998 7.79995 29.7998 7.79995 30.3998 7.89995C30.5998 7.89995 30.6998 7.99997 30.6998 8.19997C30.6998 9.5333 30.6998 10.8666 30.6998 12.2C30.6998 12.5 30.5998 12.5 30.3998 12.4C29.2998 12.2 28.2998 12.3 27.2998 12.9C26.3998 13.4 25.8998 14.2 25.7998 15.2C25.6998 16.8 25.7998 18.3 25.7998 19.9C25.7998 21.1 25.7998 22.3 25.7998 23.5C25.7998 23.8 25.6998 23.7999 25.3998 23.7999C24.0665 23.7999 22.6998 23.7999 21.2998 23.7999C20.8998 23.7999 20.8998 23.8 20.8998 23.4C20.8998 21.5333 20.8998 19.6333 20.8998 17.7Z" fill="#FEFEFE"/>
<path d="M74.0996 16C74.0996 13.4666 74.0996 10.9666 74.0996 8.49997C74.0996 8.19997 74.0997 8.09998 74.3997 8.09998C75.7997 8.16664 77.233 8.16664 78.6996 8.09998C78.8996 8.09998 78.9996 8.19997 78.9996 8.49997C78.9996 13.5 78.9996 18.5 78.9996 23.5C78.9996 23.7 78.8996 23.8 78.6996 23.8C77.233 23.8 75.7997 23.8 74.3997 23.8C74.0997 23.8 74.0996 23.7 74.0996 23.5C74.0996 20.9666 74.0996 18.4666 74.0996 16Z" fill="#FEFEFE"/>
<path d="M197.799 16C197.799 18.4666 197.799 20.9666 197.799 23.5C197.799 23.7 197.799 23.8 197.499 23.8C196.033 23.8 194.599 23.8 193.199 23.8C192.899 23.8 192.899 23.7 192.899 23.5C192.899 18.5 192.899 13.4666 192.899 8.39996C192.899 8.19996 192.899 8.09998 193.199 8.09998C194.666 8.16664 196.099 8.16664 197.499 8.09998C197.799 8.09998 197.799 8.19996 197.799 8.39996C197.799 10.9333 197.799 13.4666 197.799 16Z" fill="#EC1E24"/>
<path d="M149.3 35.2999C149.3 35.8999 149.3 36.4666 149.3 37C149.3 38.8 149.3 40.5666 149.3 42.2999C149.3 42.4999 149.2 42.6 149 42.6C148.8 42.5 148.4 42.7 148.3 42.5C148.1 42.3 148.2 41.9999 148.2 41.7999C148.2 39.1999 148.2 36.6333 148.2 34.1C148.2 33.8 148.3 33.7999 148.5 33.7999C149.3 33.5999 149.6 34 150 34.6C151.1 36.4 152.3 38.1 153.3 40C153.5 40.3 153.6 40.5999 153.8 40.7999C153.8 40.2999 153.8 39.7 153.8 39.1C153.7 38.1 153.7 37.1 153.7 36.1C153.7 35.3666 153.7 34.6666 153.7 34C153.7 33.8 153.8 33.7999 154 33.7999C154.2 33.7999 154.6 33.6999 154.8 33.7999C154.9 33.9999 154.8 34.3 154.8 34.6C154.8 37.1333 154.8 39.6666 154.8 42.2C154.8 42.5 154.7 42.5 154.5 42.6C153.9 42.7 153.5 42.4 153.2 41.9C152.1 39.9 150.8 38 149.7 36.1C149.566 35.8333 149.433 35.5666 149.3 35.2999Z" fill="#FEFEFE"/>
<path fill-rule="evenodd" clip-rule="evenodd" d="M136.399 38.1999C136.399 36.8665 136.399 35.4999 136.399 34.0999C136.399 33.9999 136.499 33.8999 136.699 33.7999C137.799 33.6999 138.899 33.6999 139.999 33.7999C142.199 33.9999 143.599 35.5999 143.599 37.7999C143.699 38.4999 143.599 39.1999 143.299 39.8999C142.699 41.3999 141.599 42.1999 140.099 42.4999C138.899 42.6999 137.799 42.5999 136.599 42.5999C136.399 42.4999 136.399 42.3999 136.399 42.2999C136.399 40.8999 136.399 39.5332 136.399 38.1999ZM137.599 38.1999C137.599 39.2665 137.599 40.2999 137.599 41.2999C137.599 41.5999 137.599 41.6999 137.899 41.6999C138.366 41.6999 138.866 41.6999 139.399 41.6999C140.799 41.4999 141.899 40.5999 142.299 39.2999C142.433 38.6999 142.466 38.0999 142.399 37.4999C142.299 36.2999 141.799 35.3999 140.599 34.8999C139.699 34.5999 138.699 34.5999 137.799 34.6999C137.599 34.6999 137.599 34.8999 137.599 34.9999C137.599 36.0665 137.599 37.1332 137.599 38.1999Z" fill="#FEFEFE"/>
<path fill-rule="evenodd" clip-rule="evenodd" d="M128.8 37.9999C128.8 39.2999 128.5 40.3999 127.7 41.3999C127 42.1999 126.1 42.5999 125 42.6999C122.2 42.8999 120.8 40.5999 120.8 38.4999C120.7 37.3999 120.9 36.2999 121.6 35.2999C122.6 33.8999 124.1 33.3999 125.7 33.6999C127.4 34.0999 128.3 35.1999 128.6 36.7999C128.8 37.1999 128.8 37.5999 128.8 37.9999ZM127.6 38.1999C127.5 37.2999 127.4 36.3999 126.8 35.6999C125.8 34.1999 123.8 34.1999 122.7 35.5999C122.3 36.2999 122.1 36.9999 122 37.7999C121.9 38.8999 122.1 39.8999 122.8 40.6999C123.8 42.0999 125.8 42.0999 126.8 40.6999C127.4 39.8999 127.5 39.0999 127.6 38.1999Z" fill="#FEFEFE"/>
<path d="M163.5 40.0999C163.5 40.7666 163.5 41.3999 163.5 41.9999C163.5 42.0999 163.5 42.1999 163.3 42.2999C161.9 42.6999 160.4 42.8999 159 42.3999C157.5 41.8999 156.7 40.7999 156.4 39.2999C156.2 37.9999 156.3 36.6999 157.1 35.4999C157.9 34.2999 159.1 33.7999 160.6 33.6999C161.4 33.5999 162.2 33.5999 163 33.8999C163.2 33.9999 163.3 34.0999 163.2 34.2999C163.1 34.4999 163.1 34.7999 163 34.8999C162.8 34.9999 162.6 34.7999 162.4 34.7999C161.3 34.4999 160.3 34.4999 159.4 34.9999C158.3 35.3999 157.8 36.2999 157.6 37.2999C157.4 38.3999 157.5 39.4999 158.2 40.3999C158.9 41.3999 159.8 41.7 161 41.7C161.4 41.7 161.8 41.6666 162.2 41.5999C162.334 41.5333 162.4 41.4333 162.4 41.2999C162.4 40.5666 162.4 39.8333 162.4 39.0999C162.4 38.8999 162.3 38.8999 162.1 38.8999C161.7 38.8999 161.3 38.8999 160.9 38.8999C160.7 38.8999 160.6 38.7999 160.6 38.5999C160.6 37.9999 160.6 37.9999 161.3 37.9999C161.967 37.9999 162.633 37.9999 163.3 37.9999C163.4 37.8999 163.5 37.9999 163.5 38.1999C163.5 38.8666 163.5 39.4999 163.5 40.0999Z" fill="#FEFEFE"/>
<path d="M112.8 38.1C112.8 36.7667 112.8 35.4333 112.8 34.1C112.7 33.8 112.8 33.7 113.1 33.8C113.3 33.8 113.466 33.8 113.6 33.8C113.9 33.7 113.9 33.8 113.9 34.1C113.9 35.1 113.9 36.1333 113.9 37.2C113.9 37.4 113.9 37.5 114.2 37.5C115.4 37.4333 116.633 37.4333 117.9 37.5C118.1 37.5 118.2 37.4 118.2 37.2C118.2 36.1333 118.2 35.0666 118.2 34C118.1 33.8 118.2 33.7 118.4 33.8C118.6 33.8 118.833 33.8 119.1 33.8C119.3 33.7 119.3 33.8 119.3 34C119.3 36.8 119.3 39.5666 119.3 42.3C119.3 42.5 119.3 42.6 119 42.6C118.8 42.5 118.4 42.7 118.2 42.5C118 42.3 118.2 42 118.2 41.7C118.133 40.7 118.133 39.7 118.2 38.7C118.2 38.5 118.1 38.4 117.9 38.4C116.633 38.4666 115.4 38.4666 114.2 38.4C114 38.4 113.9 38.5 113.9 38.7C113.9 39.9 113.9 41.1 113.9 42.3C113.9 42.5 113.9 42.6 113.7 42.6C113.4 42.5 113 42.7 112.8 42.5C112.6 42.3 112.8 42 112.8 41.7C112.8 40.5 112.8 39.3 112.8 38.1Z" fill="#FEFEFE"/>
<path fill-rule="evenodd" clip-rule="evenodd" d="M209.399 37.0999C209.399 36.5999 209.399 36.1999 209.399 35.8999C209.399 35.0999 209.399 34.2999 209.399 33.4999C209.399 33.2999 209.399 33.2999 209.599 33.2999C209.799 33.2999 210.033 33.2999 210.299 33.2999C210.499 33.2999 210.499 33.3999 210.499 33.5999C210.499 35.9333 210.499 38.2666 210.499 40.5999C210.499 41.1999 210.533 41.7666 210.599 42.2999C210.599 42.4999 210.499 42.5999 210.399 42.5999C209.499 42.5999 209.499 42.6 209.499 41.7C209.499 41.7 209.499 41.5999 209.499 41.4999C209.099 42.0999 208.599 42.4999 207.999 42.5999C206.699 42.8999 205.399 42.4 204.899 41.2C204.299 39.8 204.399 38.4999 205.199 37.2999C205.899 36.1999 207.299 35.7999 208.399 36.2999C208.799 36.4999 209.099 36.6999 209.399 37.0999ZM209.399 39.3999C209.399 39.1999 209.399 38.9999 209.399 38.7999C209.299 37.8999 208.799 37.2999 207.999 37.0999C207.199 36.8999 206.399 37.2999 206.099 37.9999C205.633 38.9333 205.599 39.8666 205.999 40.7999C206.299 41.3999 206.999 41.8 207.699 41.7C208.499 41.7 208.999 41.1999 209.299 40.4999C209.399 40.0999 209.399 39.7999 209.399 39.3999Z" fill="#FEFEFE"/>
<path d="M195.3 6.09991C194.2 6.09991 193.3 5.69991 192.8 4.59991C192 2.89991 193.1 0.999902 195 0.899902C195.7 0.899902 196.4 0.899896 197 1.2999C197.9 1.8999 198.3 2.99992 198.1 4.19992C197.8 5.19992 196.9 5.99991 195.8 6.09991C195.667 6.09991 195.5 6.09991 195.3 6.09991Z" fill="#EC1E24"/>
<path d="M76.5999 6.09992C75.6999 6.09992 74.8999 5.79992 74.3999 5.19992C73.2999 4.09992 73.3999 1.59991 75.6999 0.999912C76.6999 0.799912 77.6999 0.899925 78.5999 1.69992C79.2999 2.39992 79.3999 3.3999 79.0999 4.2999C78.8999 5.1999 78.1999 5.79991 77.2999 5.99991C76.9999 5.99991 76.7999 6.09992 76.5999 6.09992Z" fill="#FEFEFE"/>
<path fill-rule="evenodd" clip-rule="evenodd" d="M174.399 38.1999C174.399 36.8666 174.399 35.4999 174.399 34.0999C174.399 33.8999 174.499 33.7999 174.699 33.7999C175.699 33.6999 176.799 33.5999 177.899 33.7999C178.999 34.0999 179.699 34.7999 179.899 35.9999C179.999 37.1999 179.399 38.1999 178.299 38.7999C177.499 39.0999 176.599 39.0999 175.799 39.0999C175.599 39.0999 175.599 39.0999 175.599 39.2999C175.599 40.2999 175.599 41.2999 175.599 42.2999C175.599 42.4999 175.499 42.5999 175.199 42.5999C175.066 42.5333 174.899 42.5333 174.699 42.5999C174.399 42.5999 174.399 42.4999 174.399 42.1999C174.399 40.8666 174.399 39.5333 174.399 38.1999ZM176.499 34.5999C176.299 34.5999 175.999 34.6999 175.699 34.6999C175.566 34.6999 175.533 34.7666 175.599 34.8999C175.599 35.8999 175.599 36.8999 175.599 37.8999C175.599 37.9999 175.599 38.0999 175.699 38.0999C176.499 38.1999 177.299 38.2999 177.999 37.7999C178.599 37.2999 178.799 36.6999 178.699 35.8999C178.499 35.2999 178.099 34.8999 177.499 34.6999C177.166 34.6333 176.833 34.5999 176.499 34.5999Z" fill="#FEFEFE"/>
<path d="M167.1 42.6999C166.3 42.6999 165.6 42.5666 165 42.2999C164.8 42.1999 164.7 42.0999 164.8 41.8999C164.9 41.6999 164.9 41.2999 165 41.1999C165.2 41.0999 165.4 41.3999 165.7 41.4999C166.3 41.6999 167 41.7999 167.8 41.5999C168.3 41.4999 168.8 41.1999 168.9 40.4999C169.033 39.8999 168.833 39.3999 168.3 38.9999C167.9 38.7999 167.5 38.5999 167.1 38.3999C166.7 38.3333 166.367 38.1999 166.1 37.9999C165.2 37.3999 164.8 36.6999 165 35.6999C165.1 34.6999 165.7 34.0999 166.6 33.7999C167.6 33.4999 168.6 33.5999 169.5 33.8999C169.7 33.9999 169.8 34.0999 169.7 34.2999C169.6 34.4999 169.6 34.7999 169.4 34.8999C169.3 35.0999 169 34.7999 168.8 34.7999C168.3 34.5999 167.7 34.4999 167.2 34.6999C166.6 34.7999 166.2 35.1999 166.1 35.6999C166 36.2999 166.3 36.6999 166.7 36.9999C167.1 37.2999 167.5 37.3999 167.9 37.5999C168.3 37.7333 168.667 37.8999 169 38.0999C169.9 38.6999 170.2 39.4999 170.1 40.4999C170 41.4999 169.4 42.0999 168.5 42.3999C168.033 42.5999 167.567 42.6999 167.1 42.6999Z" fill="#FEFEFE"/>
<path d="M130.2 38.2C130.2 36.8 130.2 35.3999 130.2 33.9999C130.2 33.7999 130.3 33.7999 130.5 33.7999C130.8 33.7999 131.1 33.6999 131.3 33.7999C131.5 33.9999 131.4 34.3 131.4 34.6C131.4 36.8666 131.4 39.0999 131.4 41.2999C131.4 41.4999 131.4 41.6 131.7 41.6C132.767 41.6 133.834 41.6 134.9 41.6C135.1 41.6 135.2 41.5999 135.2 41.8999C135.1 42.5999 135.2 42.6 134.4 42.6C133.134 42.6 131.867 42.6 130.6 42.6C130.3 42.6 130.2 42.5 130.2 42.2C130.2 40.8666 130.2 39.5333 130.2 38.2Z" fill="#FEFEFE"/>
<path d="M194.7 38.2C194.7 36.8 194.7 35.3999 194.7 33.9999C194.7 33.7999 194.8 33.7999 195 33.7999C195.3 33.7999 195.7 33.6999 195.8 33.7999C196 33.9999 195.9 34.4 195.9 34.7C195.9 36.9 195.9 39.0999 195.9 41.2999C195.9 41.4999 195.9 41.6 196.2 41.6C197.267 41.6 198.334 41.6 199.4 41.6C199.6 41.6 199.7 41.5999 199.7 41.8999C199.7 42.5999 199.7 42.6 199 42.6C197.734 42.6 196.467 42.6 195.2 42.6C194.7 42.6 194.7 42.6 194.7 42.1C194.7 40.7666 194.7 39.4666 194.7 38.2Z" fill="#FEFEFE"/>
<path d="M180.6 36.3C180.933 36.3 181.3 36.3 181.7 36.3C181.9 36.3 181.9 36.4 181.9 36.5C182.4 38.1 183 39.7 183.5 41.3C183.6 41.3 183.6 41.2 183.6 41.1C184.133 39.5667 184.666 38.0333 185.2 36.5C185.3 36.3 185.4 36.2 185.5 36.3C185.833 36.3 186.2 36.3 186.6 36.3C186.333 36.8333 186.1 37.3666 185.9 37.9C185.3 39.3666 184.733 40.8333 184.2 42.3C184.1 42.5 184.1 42.6 183.9 42.6C183.6 42.5 183.2 42.6 183 42.5C182.8 42.4 182.7 42 182.6 41.7C181.933 39.9667 181.3 38.2333 180.7 36.5C180.6 36.5 180.6 36.4 180.6 36.3Z" fill="#FEFEFE"/>
<path d="M187.9 39.1999C187.9 38.5999 187.9 37.9999 187.9 37.3999C187.9 37.1999 187.833 37.1333 187.7 37.1999C187.633 37.1999 187.567 37.1999 187.5 37.1999C186.8 37.1999 186.8 37.0999 186.9 36.3999C186.9 36.2666 186.966 36.1999 187.1 36.1999C187.3 36.1999 187.5 36.1999 187.7 36.1999C187.8 36.1999 187.9 36.1999 187.9 35.9999C187.9 35.6666 187.9 35.2999 187.9 34.8999C187.9 34.7999 187.9 34.6999 188.1 34.6999C188.366 34.6333 188.6 34.5666 188.8 34.4999C189 34.3999 189 34.4999 189 34.5999C189 35.0666 189 35.5332 189 35.9999C189 36.1999 189.1 36.1999 189.3 36.1999C189.7 36.1999 190.067 36.1999 190.4 36.1999C190.6 36.1999 190.7 36.2999 190.7 36.4999C190.7 37.1999 190.7 37.0999 190 37.1999C189.7 37.1999 189.3 36.9999 189.1 37.1999C188.9 37.3999 189 37.7999 189 38.0999C189 38.9666 189 39.7999 189 40.5999C189.1 41.5999 189.4 41.8999 190.3 41.6999C190.5 41.6999 190.6 41.6999 190.5 41.8999C190.5 41.9666 190.533 42.0333 190.6 42.0999C190.6 42.5999 190.6 42.5999 190.1 42.6999C189.8 42.6999 189.4 42.6999 189.1 42.5999C188.3 42.4999 187.9 41.8999 187.9 40.9999C187.9 40.3999 187.9 39.7999 187.9 39.1999Z" fill="#FEFEFE"/>
<path d="M201 39.2C201 38.6 201.033 38 201.1 37.4C201.1 37.2 201 37.1 200.8 37.2C200.733 37.2 200.667 37.1667 200.6 37.1C200.4 37.1 200.2 37.3 200.1 37.1C200 36.9 200.1 36.6 200.1 36.3C200.1 36.2333 200.133 36.2 200.2 36.2C200.2 36.2 200.233 36.2 200.3 36.2C200.5 36.2 200.8 36.3 201 36.2C201.2 36 201 35.7 201 35.5C201.1 34.7 201 34.7 201.7 34.5C202.2 34.4 202.2 34.4 202.2 34.9C202.2 35.2333 202.2 35.6 202.2 36C202.2 36.2 202.2 36.2 202.4 36.2C202.8 36.2 203.2 36.2 203.6 36.2C203.8 36.2 203.8 36.3 203.8 36.5C203.9 37.2 203.9 37.2 203.2 37.2C202.933 37.2 202.667 37.1667 202.4 37.1C202.2 37.1 202.2 37.2 202.2 37.4C202.2 38.4667 202.2 39.5333 202.2 40.6C202.2 41.6 202.6 41.9 203.5 41.7C203.7 41.7 203.7 41.7 203.7 41.9C203.7 41.9667 203.7 42 203.7 42C203.8 42.6 203.7 42.6 203.2 42.7C202.9 42.7 202.6 42.7 202.3 42.6C201.5 42.5 201.1 41.9 201.1 41C201.033 40.4 201.033 39.8 201.1 39.2C201.033 39.2 201 39.2 201 39.2Z" fill="#FEFEFE"/>
<path d="M146.3 38.2C146.233 39.5333 146.233 40.9 146.3 42.3C146.3 42.5 146.2 42.6 146 42.6C145.733 42.5333 145.5 42.5333 145.3 42.6C145.166 42.6 145.1 42.5333 145.1 42.4C145.1 39.6 145.1 36.7666 145.1 33.9C145.1 33.8 145.1 33.8 145.3 33.8C146.3 33.7 146.3 33.7 146.3 34.7C146.3 35.8333 146.3 37 146.3 38.2Z" fill="#FEFEFE"/>
<path d="M212 41.9C212 41.4 212.3 41 212.8 41C213.2 41 213.5 41.4 213.5 41.9C213.5 42.4 213.2 42.7 212.7 42.7C212.3 42.7 212 42.4 212 41.9Z" fill="#FEFEFE"/>
</svg>
