<svg width="214" height="30" viewBox="0 0 214 30" fill="none" xmlns="http://www.w3.org/2000/svg">
<path d="M0 12.209C0.1 11.809 6.10203e-06 11.409 0.100006 11.009C0.500006 7.30899 2.40001 4.50897 5.60001 2.70897C7.20001 1.80897 8.90001 1.40898 10.7 1.30898C12.6 1.10898 14.6 1.20897 16.5 1.70897C16.8333 1.77564 17.1667 1.90897 17.5 2.10897C17.7 2.10897 17.7 2.20898 17.7 2.40898C17.3667 3.54232 17.0667 4.67565 16.8 5.80898C16.7 6.00898 16.6 6.00898 16.5 5.90898C15.0333 5.37565 13.5 5.14231 11.9 5.20897C10.1 5.30897 8.50001 5.80897 7.10001 7.10897C6.20001 8.00897 5.60002 9.10898 5.40002 10.309C5.00002 12.109 5.10001 13.809 5.70001 15.409C6.60001 17.509 8.20002 18.809 10.4 19.209C12.4 19.609 14.5 19.409 16.4 18.809C16.6 18.709 16.7 18.709 16.8 18.909C17 20.0423 17.2 21.1423 17.4 22.209C17.5 22.409 17.4 22.509 17.1 22.609C16.2333 22.9423 15.3667 23.1756 14.5 23.309C13.5 23.4423 12.5 23.509 11.5 23.509C9.5 23.409 7.60002 23.209 5.80002 22.309C2.86668 20.909 1.03335 18.609 0.300018 15.409C0.100018 14.7423 0 14.0757 0 13.409C0 13.309 0 13.209 0 13.109C0 12.7756 0 12.4756 0 12.209Z" fill="#FEFEFE"/>
<path d="M146.7 5.70901C146.6 6.00901 146.5 6.20903 146.5 6.50903C145.5 10.109 144.4 13.609 143.2 17.109C142.666 18.909 142.1 20.6757 141.5 22.409C141.4 22.709 141.3 22.809 141.1 22.809C139.966 22.7424 138.866 22.7424 137.8 22.809C137.6 22.809 137.5 22.709 137.4 22.509C136.2 18.009 134.8 13.609 133.8 9.00903C133.6 8.00903 133.4 7.00903 133.2 6.00903C133.133 5.94237 133.066 5.84235 133 5.70901C133 6.20901 133 6.60903 133 7.00903C132.866 9.6757 132.733 12.309 132.6 14.909C132.533 17.109 132.433 19.309 132.3 21.509C132.3 21.9757 132.266 22.4424 132.2 22.909C132.2 23.109 132.2 23.109 132 23.109C130.6 23.109 129.2 23.109 127.8 23.109C127.6 23.109 127.6 23.009 127.6 22.909C127.666 21.8424 127.733 20.7757 127.8 19.709C127.933 18.2423 128.033 16.809 128.1 15.409C128.233 13.609 128.366 11.809 128.5 10.009C128.566 8.60903 128.633 7.20902 128.7 5.80902C128.833 4.47569 128.933 3.14235 129 1.80902C129 1.60902 129.1 1.50903 129.3 1.50903C131.366 1.50903 133.433 1.50903 135.5 1.50903C135.7 1.50903 135.8 1.60901 135.8 1.70901C136.8 5.20901 137.9 8.60901 138.8 12.109C139.2 13.409 139.4 14.809 139.7 16.109C139.7 16.1757 139.7 16.2424 139.7 16.309C139.7 16.309 139.7 16.409 139.8 16.409C139.9 16.409 139.9 16.309 139.9 16.309C139.966 16.109 140 15.9424 140 15.809C140.9 11.909 142.1 8.20903 143.4 4.50903C143.733 3.5757 144.033 2.64235 144.3 1.70901C144.4 1.60901 144.4 1.50903 144.6 1.50903C146.666 1.50903 148.7 1.50903 150.7 1.50903C150.9 1.50903 151 1.60902 151 1.80902C151.066 3.20902 151.133 4.60903 151.2 6.00903C151.333 8.0757 151.466 10.1757 151.6 12.309C151.666 13.509 151.733 14.709 151.8 15.909C151.866 18.1757 151.966 20.409 152.1 22.609C152.2 23.209 152.2 23.109 151.7 23.109C150.3 23.109 148.933 23.109 147.6 23.109C147.4 23.109 147.3 23.109 147.3 22.809C147.233 21.8757 147.2 20.909 147.2 19.909C147.066 17.5757 146.966 15.209 146.9 12.809C146.833 11.1424 146.8 9.47569 146.8 7.80902C146.8 7.14235 146.8 6.44235 146.8 5.70901C146.733 5.70901 146.7 5.70901 146.7 5.70901Z" fill="#EC1E24"/>
<path fill-rule="evenodd" clip-rule="evenodd" d="M183.7 20.9091C183.4 21.2091 183.1 21.4091 182.9 21.7091C181.7 22.8091 180.2 23.1091 178.6 23.0091C175.2 22.7091 172.9 20.0091 172.5 17.0091C172.2 15.1091 172.3 13.309 173.1 11.609C174.1 9.40904 175.6 7.90906 178 7.30906C179.2 6.97572 180.434 7.00906 181.7 7.40906C182.634 7.7424 183.367 8.30905 183.9 9.10905C184 9.10905 184 9.30906 184.2 9.30906C184.267 8.90906 184.3 8.50905 184.3 8.10905C184.3 7.40905 184.3 7.40906 185 7.40906C186.134 7.40906 187.267 7.40906 188.4 7.40906C188.6 7.40906 188.7 7.50905 188.6 7.70905C188.5 9.20905 188.5 10.709 188.5 12.109C188.5 15.1757 188.5 18.2091 188.5 21.2091C188.5 22.4091 188.4 23.7091 188 24.9091C187.2 27.2091 185.7 28.8091 183.4 29.4091C180.4 30.2091 177.4 30.1091 174.5 29.0091C173.7 28.7091 173.7 28.7091 173.9 27.8091C174.167 26.9424 174.434 26.0424 174.7 25.109C174.7 24.909 174.8 24.9091 175 25.0091C176.4 25.7424 177.934 26.109 179.6 26.109C180.8 26.109 182 25.7091 182.8 24.7091C183.5 23.9091 183.6 23.0091 183.7 22.0091C183.7 21.6091 183.7 21.3091 183.7 20.9091ZM183.6 15.0091C183.5 14.5091 183.6 14.0091 183.5 13.4091C183.4 12.2091 182.8 11.3091 181.6 10.9091C180.4 10.6091 179.2 10.9091 178.4 11.9091C177.8 12.7091 177.5 13.6091 177.4 14.7091C177.3 16.0091 177.5 17.4091 178.5 18.4091C179.3 19.3091 180.3 19.6091 181.4 19.3091C182.5 19.0091 183.3 18.309 183.5 17.109C183.6 16.409 183.6 15.7091 183.6 15.0091Z" fill="#EC1E24"/>
<path fill-rule="evenodd" clip-rule="evenodd" d="M108.3 29.809C106.4 29.809 104.5 29.609 102.7 28.809C102.5 28.609 102.5 28.509 102.5 28.309C102.833 27.309 103.133 26.2756 103.4 25.209C103.4 25.009 103.5 24.909 103.7 25.009C105.167 25.809 106.7 26.1756 108.3 26.109C108.9 26.109 109.467 26.009 110 25.809C111.5 25.209 112.2 24.109 112.4 22.609C112.4 22.1423 112.4 21.6756 112.4 21.209C112.4 21.109 112.4 21.009 112.3 20.909C112.2 20.909 112.2 21.009 112.1 21.109C110.9 22.609 109.2 23.109 107.3 23.009C104.1 22.809 101.7 20.209 101.2 17.209C100.9 15.209 101 13.309 101.9 11.509C102.9 9.30898 104.6 7.70896 107 7.30896C108.7 7.00896 110.3 7.10895 111.7 8.10895C112.1 8.37562 112.433 8.74229 112.7 9.20896C112.7 9.20896 112.8 9.30896 112.9 9.30896C113 9.30896 113 9.20895 113 9.10895C113 8.64229 113.033 8.17563 113.1 7.70896C113.1 7.50896 113.2 7.50898 113.3 7.50898C114.567 7.50898 115.833 7.50898 117.1 7.50898C117.3 7.50898 117.4 7.50896 117.3 7.70896C117.2 8.80896 117.2 9.90898 117.2 11.009C117.2 14.3423 117.2 17.6756 117.2 21.009C117.2 22.109 117.1 23.309 116.8 24.509C116 27.2423 114.2 28.909 111.4 29.509C110.333 29.7756 109.3 29.8756 108.3 29.809ZM112.3 15.009C112.3 14.609 112.3 14.109 112.3 13.709C112.2 12.609 111.8 11.709 110.8 11.109C109.5 10.509 107.8 10.709 106.9 12.209C105.8 13.909 105.8 15.709 106.6 17.609C107.1 18.809 108.2 19.409 109.6 19.409C110.7 19.409 111.8 18.509 112.1 17.409C112.3 16.609 112.3 15.809 112.3 15.009Z" fill="#FEFEFE"/>
<path d="M97.9996 18.209C97.9996 19.7423 97.9996 21.2756 97.9996 22.809C97.9996 23.009 97.8996 23.109 97.5996 23.109C96.1996 23.109 94.7996 23.109 93.3996 23.109C93.0996 23.109 93.0996 23.009 93.0996 22.809C93.0996 20.009 93.0996 17.2423 93.0996 14.509C93.0996 13.9757 93.0329 13.4757 92.8996 13.009C92.2996 10.809 90.0996 10.709 88.9996 11.509C88.1329 12.109 87.6996 12.909 87.6996 13.909C87.6996 16.8423 87.6996 19.7756 87.6996 22.709C87.6996 23.109 87.6996 23.109 87.2996 23.109C85.8996 23.109 84.4996 23.109 83.0996 23.109C82.7996 23.109 82.6996 23.009 82.6996 22.809C82.7663 18.7423 82.7663 14.709 82.6996 10.709C82.6996 9.77563 82.6663 8.84231 82.5996 7.90898C82.5996 7.50898 82.5996 7.50898 82.9996 7.50898C84.1996 7.50898 85.3996 7.47564 86.5996 7.40898C86.7996 7.40898 86.8996 7.50897 86.8996 7.70897C86.9663 8.30897 87.0329 8.90898 87.0996 9.50898C87.0996 9.50898 87.0996 9.60897 87.1996 9.70897C87.2996 9.70897 87.2996 9.60898 87.3996 9.50898C87.9996 8.70898 88.6996 8.00896 89.6996 7.60896C91.7996 6.80896 93.8996 6.80897 95.7996 8.30897C96.9996 9.20897 97.4996 10.509 97.7996 11.909C97.9996 12.909 97.9996 13.909 97.9996 14.909C97.9996 16.0423 97.9996 17.1423 97.9996 18.209Z" fill="#FEFEFE"/>
<path fill-rule="evenodd" clip-rule="evenodd" d="M169.2 16.709C169.3 18.209 169.2 19.709 169.3 21.109C169.3 21.709 169.367 22.2757 169.5 22.809C169.5 23.009 169.5 23.109 169.2 23.109C167.934 23.109 166.634 23.109 165.3 23.109C165.1 23.109 165 23.109 165 22.909C164.934 22.5757 164.867 22.209 164.8 21.809C164.8 21.709 164.8 21.609 164.7 21.609C164.6 21.509 164.6 21.709 164.5 21.709C162.8 23.709 159.301 23.909 157.401 22.909C155.601 21.909 154.767 20.3757 154.901 18.309C155.001 16.309 156 14.909 157.8 13.909C159.1 13.209 160.501 12.909 161.901 12.809C162.634 12.6757 163.367 12.6423 164.101 12.709C164.301 12.709 164.3 12.609 164.3 12.409C164.3 11.709 164.001 11.209 163.401 10.909C163.001 10.709 162.5 10.509 162 10.509C160.3 10.409 158.601 10.709 157.101 11.609C157.001 11.609 156.9 11.609 156.8 11.409C156.534 10.5424 156.267 9.67568 156 8.80901C156 8.60901 156 8.50902 156.2 8.40902C157.5 7.70902 159 7.30901 160.5 7.20901C161.8 7.10901 163.2 7.00901 164.5 7.30901C167.1 7.90901 168.701 9.60901 169.101 12.209C169.301 13.409 169.2 14.609 169.2 15.709C169.267 16.0423 169.267 16.3757 169.2 16.709ZM164.5 16.909C164.5 16.509 164.5 16.309 164.5 16.009C164.5 15.809 164.4 15.709 164.2 15.709C163.467 15.709 162.767 15.7757 162.101 15.909C161.501 16.109 160.9 16.309 160.5 16.609C159.3 17.609 159.601 19.409 160.901 19.909C162.401 20.409 164.201 19.409 164.401 18.009C164.501 17.609 164.5 17.209 164.5 16.909Z" fill="#EC1E24"/>
<path fill-rule="evenodd" clip-rule="evenodd" d="M46.0002 16.209C46.0002 17.309 46.0002 18.209 46.0002 19.109C46.0002 20.309 46.0002 21.609 46.2002 22.809C46.3002 23.009 46.2002 23.109 46.0002 23.109C44.7335 23.109 43.4335 23.109 42.1002 23.109C41.9002 23.109 41.8002 23.109 41.8002 22.809C41.7335 22.4757 41.6669 22.1423 41.6002 21.809C41.6002 21.709 41.6002 21.609 41.5002 21.609C41.4002 21.509 41.3002 21.609 41.3002 21.709C40.5002 22.5757 39.5002 23.109 38.3002 23.309C36.8002 23.609 35.3002 23.509 33.9002 22.709C32.2002 21.609 31.5002 19.909 31.7002 18.109C31.9002 15.609 33.5002 14.309 35.7002 13.509C37.0002 13.009 38.3002 12.809 39.6002 12.709C40.0668 12.709 40.5002 12.709 40.9002 12.709C41.1002 12.709 41.1002 12.609 41.1002 12.409C41.1002 11.709 40.8002 11.109 40.1002 10.809C39.3002 10.509 38.5002 10.409 37.6002 10.509C36.2668 10.5757 35.0335 10.909 33.9002 11.509C33.7002 11.609 33.7002 11.609 33.6002 11.409C33.3335 10.5423 33.0669 9.64233 32.8002 8.709C32.8002 8.509 32.9002 8.50901 33.0002 8.40901C34.0002 7.94234 35.0002 7.60901 36.0002 7.40901C37.3335 7.14234 38.6668 7.07566 40.0002 7.209C41.6002 7.309 43.1002 7.70901 44.3002 8.90901C45.3002 9.90901 45.8002 11.109 45.9002 12.509C46.1002 13.809 46.0002 15.109 46.0002 16.209ZM41.3002 16.809C41.3002 16.5423 41.3002 16.2757 41.3002 16.009C41.3002 15.809 41.2002 15.709 41.0002 15.709C40.4002 15.709 39.8002 15.7423 39.2002 15.809C38.5002 16.009 37.9002 16.109 37.3002 16.509C36.1002 17.409 36.2002 19.309 37.5002 19.909C38.9002 20.509 40.8002 19.609 41.2002 18.109C41.3002 17.709 41.3002 17.209 41.3002 16.809Z" fill="#FEFEFE"/>
<path d="M50.5996 17.109C50.5996 15.1757 50.5996 13.2757 50.5996 11.409C50.5996 11.109 50.4996 11.109 50.1996 11.109C49.7996 11.109 49.2996 11.109 48.8996 11.109C48.5996 11.109 48.5996 11.009 48.5996 10.809C48.5996 9.80903 48.5996 8.77569 48.5996 7.70902C48.5996 7.50902 48.5996 7.40904 48.8996 7.50904C49.2996 7.50904 49.7996 7.40904 50.2996 7.50904C50.4996 7.50904 50.5996 7.40902 50.5996 7.20902C50.5996 6.10902 50.6996 5.00904 51.0996 4.00904C51.7996 1.80904 53.2996 0.609015 55.4996 0.109015C56.7996 -0.090985 58.0996 0.0090211 59.3996 0.209021C59.4996 0.309021 59.5996 0.309039 59.5996 0.509039C59.5329 1.24237 59.4996 2.00903 59.4996 2.80903C59.4329 3.14236 59.3996 3.47569 59.3996 3.80903C59.3996 4.00903 59.3996 4.00904 59.0996 4.00904C58.5663 3.80904 57.9996 3.7757 57.3996 3.90903C56.3996 4.00903 55.7996 4.70902 55.5996 5.70902C55.4996 6.20902 55.4996 6.70901 55.4996 7.10901C55.4996 7.40901 55.4996 7.50904 55.7996 7.50904C56.6662 7.50904 57.5329 7.4757 58.3996 7.40903C58.5996 7.40903 58.6996 7.50903 58.6996 7.80903C58.6996 8.80903 58.6996 9.80903 58.6996 10.809C58.6996 11.009 58.5996 11.109 58.3996 11.109C57.5329 11.109 56.6996 11.109 55.8996 11.109C55.5996 11.109 55.4996 11.209 55.4996 11.509C55.4996 15.2424 55.4996 18.9757 55.4996 22.709C55.4996 23.109 55.4996 23.109 55.0996 23.109C53.6996 23.109 52.2996 23.109 50.8996 23.109C50.5996 23.109 50.5996 23.009 50.5996 22.809C50.5996 20.8757 50.5996 18.9757 50.5996 17.109Z" fill="#FEFEFE"/>
<path d="M62.3998 14.709C62.3998 13.6423 62.3998 12.5757 62.3998 11.509C62.3998 11.109 62.3998 11.109 61.9998 11.109C61.5332 11.109 61.0665 11.109 60.5999 11.109C60.3999 11.109 60.2998 11.009 60.2998 10.809C60.2998 9.809 60.2998 8.77566 60.2998 7.709C60.2998 7.509 60.3999 7.40901 60.5999 7.40901C61.0999 7.50901 61.5999 7.40902 62.0999 7.50902C62.3999 7.50902 62.3998 7.40899 62.3998 7.10899C62.3998 6.40899 62.3998 5.609 62.3998 4.809C62.3998 4.609 62.4998 4.50901 62.6998 4.40901C64.0998 4.07568 65.4998 3.709 66.8998 3.309C67.1998 3.209 67.1998 3.30902 67.1998 3.50902C67.1998 4.70902 67.1998 5.90899 67.1998 7.10899C67.1998 7.40899 67.2999 7.50902 67.5999 7.50902C68.4999 7.40902 69.4998 7.50901 70.3998 7.40901C70.6998 7.40901 70.7998 7.509 70.7998 7.809C70.7998 8.74234 70.7998 9.709 70.7998 10.709C70.7998 11.009 70.6998 11.109 70.3998 11.109C69.4665 11.109 68.5332 11.109 67.5999 11.109C67.2999 11.109 67.1998 11.109 67.1998 11.409C67.1998 13.209 67.1998 15.0423 67.1998 16.909C67.1998 17.409 67.2998 17.909 67.4998 18.409C67.6998 19.009 68.1998 19.409 68.8998 19.509C69.3998 19.509 69.8998 19.509 70.4998 19.409C70.5998 19.309 70.6998 19.409 70.6998 19.509C70.6998 20.6423 70.6998 21.7423 70.6998 22.809C70.6998 23.009 70.5998 23.109 70.3998 23.109C69.9332 23.2423 69.4665 23.3423 68.9998 23.409C67.9998 23.509 67.0998 23.509 66.1998 23.309C64.1332 22.8423 62.9332 21.5757 62.5999 19.509C62.4665 18.8423 62.3998 18.1423 62.3998 17.409C62.3998 16.4757 62.3998 15.5757 62.3998 14.709Z" fill="#FEFEFE"/>
<path d="M200.6 15.409C200.6 11.309 203.3 8.009 207.4 7.309C209.4 7.009 211.4 7.00899 213.4 7.60899C213.6 7.70899 213.7 7.80901 213.6 8.00901C213.4 9.07568 213.2 10.109 213 11.109C212.9 11.309 212.8 11.409 212.6 11.309C211.4 10.809 210.1 10.709 208.8 11.009C207 11.409 205.8 13.009 205.7 14.809C205.7 15.509 205.7 16.109 205.9 16.809C206.4 18.309 207.8 19.409 209.4 19.609C210.6 19.6757 211.733 19.5423 212.8 19.209C213 19.109 213.1 19.109 213.1 19.409C213.3 20.409 213.5 21.409 213.7 22.409C213.7 22.709 213.6 22.809 213.4 22.809C211.8 23.409 210.1 23.509 208.4 23.509C207.1 23.409 205.8 23.109 204.7 22.509C202.5 21.3757 201.2 19.5757 200.8 17.109C200.733 16.8423 200.666 16.5757 200.6 16.309C200.6 16.0423 200.6 15.7423 200.6 15.409Z" fill="#EC1E24"/>
<path d="M20.6 17.0091C20.6 15.3424 20.6 13.6757 20.6 12.0091C20.6 10.6091 20.5667 9.20904 20.5 7.80904C20.5 7.50904 20.5 7.40905 20.8 7.40905C22 7.47571 23.2 7.47571 24.4 7.40905C24.6 7.40905 24.7 7.50904 24.7 7.80904C24.7 8.60904 24.7334 9.40903 24.8 10.209C24.8 10.309 24.8 10.409 24.9 10.409C25.1 10.409 25.1 10.309 25.1 10.209C25.7 8.70903 26.7 7.70903 28.3 7.20903C28.9 7.10903 29.5 7.10903 30.1 7.20903C30.3 7.20903 30.4 7.30905 30.4 7.50905C30.4 8.84238 30.4 10.1757 30.4 11.5091C30.4 11.8091 30.3 11.809 30.1 11.709C29 11.509 28 11.609 27 12.209C26.1 12.709 25.6 13.5091 25.5 14.5091C25.4 16.1091 25.5 17.609 25.5 19.209C25.5 20.409 25.5 21.609 25.5 22.809C25.5 23.109 25.4 23.109 25.1 23.109C23.7667 23.109 22.4 23.109 21 23.109C20.6 23.109 20.6 23.109 20.6 22.709C20.6 20.8424 20.6 18.9424 20.6 17.0091Z" fill="#FEFEFE"/>
<path d="M73.7998 15.3091C73.7998 12.7757 73.7998 10.2757 73.7998 7.80905C73.7998 7.50905 73.7999 7.40906 74.0999 7.40906C75.4999 7.47572 76.9332 7.47572 78.3998 7.40906C78.5998 7.40906 78.6998 7.50905 78.6998 7.80905C78.6998 12.8091 78.6998 17.8091 78.6998 22.8091C78.6998 23.0091 78.5998 23.109 78.3998 23.109C76.9332 23.109 75.4999 23.109 74.0999 23.109C73.7999 23.109 73.7998 23.0091 73.7998 22.8091C73.7998 20.2757 73.7998 17.7757 73.7998 15.3091Z" fill="#FEFEFE"/>
<path d="M197.5 15.3091C197.5 17.7757 197.5 20.2757 197.5 22.8091C197.5 23.0091 197.5 23.109 197.2 23.109C195.733 23.109 194.3 23.109 192.9 23.109C192.6 23.109 192.6 23.0091 192.6 22.8091C192.6 17.8091 192.6 12.7757 192.6 7.70905C192.6 7.50905 192.6 7.40906 192.9 7.40906C194.366 7.47572 195.8 7.47572 197.2 7.40906C197.5 7.40906 197.5 7.50905 197.5 7.70905C197.5 10.2424 197.5 12.7757 197.5 15.3091Z" fill="#EC1E24"/>
<path d="M195 5.409C193.9 5.409 193 5.009 192.5 3.909C191.7 2.209 192.8 0.308984 194.7 0.208984C195.4 0.208984 196.1 0.208978 196.7 0.608978C197.6 1.20898 198 2.309 197.8 3.509C197.5 4.509 196.6 5.309 195.5 5.409C195.367 5.409 195.2 5.409 195 5.409Z" fill="#EC1E24"/>
<path d="M76.3001 5.409C75.4001 5.409 74.6001 5.10901 74.1001 4.50901C73.0001 3.40901 73.1001 0.908995 75.4001 0.308995C76.4001 0.108995 77.4001 0.209007 78.3001 1.00901C79.0001 1.70901 79.1001 2.70898 78.8001 3.60898C78.6001 4.50898 77.9001 5.10899 77.0001 5.30899C76.7001 5.30899 76.5001 5.409 76.3001 5.409Z" fill="#FEFEFE"/>
</svg>
